# xmcd
#
# Track frame offsets:
#	150
#	14628
#	28086
#	50479
#	75375
#	86982
#	117669
#	134440
#	147737
#	170984
#	192377
#	215826
#	229038
#
# Disc length: 3338 seconds
#
# Revision: 6
# Processed by: cddbd v1.5.2PL0 Copyright (c) Steve Scherf et al.
# Submitted via: EasyCDDAExtractor 16.0.6.1
#
DISCID=ce0d080d
DTITLE=Clarence Gatemouth Brown - JB-230 American Music, Texas Style
DYEAR=1999
DGENRE=Blues
TTITLE0=Rock My Blues Away
TTITLE1=Half Steppin'
TTITLE2=Hootie Blues
TTITLE3=Front Burner
TTITLE4=I'm Beginning To See the Light
TTITLE5=Swamp Ghost
TTITLE6=Without Me Baby
TTITLE7=Gate Swings Again
TTITLE8=Strange Things Happen
TTITLE9=Don't Get Around Much Anymore
TTITLE10=Guitar In My Hand
TTITLE11=Jumpin' the Blues
TTITLE12=Things Ain't What They Used To Be
EXTD=LABEL =Polygram Records, Inc.\nID =314547536-2\nUPC =none\nCOPYRIGHT =
EXTD=1999
EXTT0=
EXTT1=
EXTT2=
EXTT3=
EXTT4=
EXTT5=
EXTT6=
EXTT7=
EXTT8=
EXTT9=
EXTT10=
EXTT11=
EXTT12=
PLAYORDER=
